Coordinates
version=1
nRows=6
nColumns=63
inDegrees=yes

Units are S.I. units (second, meters, Newtons, ...)
If the header above contains a line with 'inDegrees', this indicates whether rotational values are in degrees (yes) or radians (no).

endheader
time	pelvis_tilt	pelvis_list	pelvis_rotation	pelvis_tx	pelvis_ty	pelvis_tz	hip_flexion_r	hip_adduction_r	hip_rotation_r	knee_angle_r	knee_angle_r_beta	ankle_angle_r	subtalar_angle_r	mtp_angle_r	hip_flexion_l	hip_adduction_l	hip_rotation_l	knee_angle_l	knee_angle_l_beta	ankle_angle_l	subtalar_angle_l	mtp_angle_l	L5_S1_Flex_Ext	L5_S1_Lat_Bending	L5_S1_axial_rotation	L4_L5_Flex_Ext	L4_L5_Lat_Bending	L4_L5_axial_rotation	L3_L4_Flex_Ext	L3_L4_Lat_Bending	L3_L4_axial_rotation	L2_L3_Flex_Ext	L2_L3_Lat_Bending	L2_L3_axial_rotation	L1_L2_Flex_Ext	L1_L2_Lat_Bending	L1_L2_axial_rotation	L1_T12_Flex_Ext	L1_T12_Lat_Bending	L1_T12_axial_rotation	Abs_r3	Abs_r2	Abs_r1	Abs_t1	Abs_t2	neck_flexion	neck_bending	neck_rotation	arm_flex_r	arm_add_r	arm_rot_r	elbow_flex_r	pro_sup_r	wrist_flex_r	wrist_dev_r	arm_flex_l	arm_add_l	arm_rot_l	elbow_flex_l	pro_sup_l	wrist_flex_l	wrist_dev_l
2.491525	4.959385	-35.054042	102.856598	0.173148	0.849749	0.774597	45.259525	-1.467295	-13.250764	24.764148	0.432216	42.305125	7.213907	0.000000	47.478396	1.218898	7.198786	25.010741	0.436520	38.136962	-3.260406	0.000000	0.216213	0.563714	0.030096	0.401529	0.749740	0.031977	0.355216	1.370614	0.031977	0.247110	1.370614	0.026334	0.200775	1.149526	0.024453	0.123544	0.873193	0.022572	1.544387	6.376846	0.167385	0.000000	0.000000	28.333549	2.098988	-1.768773	43.610868	-10.552049	18.253542	53.409997	88.565323	-27.528824	5.061059	56.838328	10.522476	134.202358	0.381906	2.528740	-36.633508	-18.612574
2.508475	4.720758	-34.966124	102.306423	0.174258	0.852771	0.773013	44.496392	-1.317039	-13.774023	23.752297	0.414556	41.258655	7.933778	0.000000	46.765527	0.915547	6.664704	24.112542	0.420843	37.271551	-3.137081	0.000000	0.230205	0.535368	0.097068	0.427514	0.712040	0.103135	0.378204	1.301695	0.103135	0.263101	1.301695	0.084935	0.213768	1.091723	0.078868	0.131539	0.829286	0.072801	1.644331	6.056194	0.539863	0.000000	0.000000	28.338172	2.311672	-1.229059	42.421843	-9.919884	17.722385	53.856011	88.381983	-25.801902	7.288119	55.148272	10.782615	132.372894	0.331271	1.882977	-32.845409	-19.441406
2.525424	4.571444	-34.934273	101.818590	0.175343	0.855550	0.771921	43.866372	-1.144814	-14.367599	22.835146	0.398548	40.178267	8.631930	0.000000	46.194471	0.594040	6.155672	23.311806	0.406868	36.429909	-3.017770	0.000000	0.247129	0.517213	0.150282	0.458943	0.687893	0.159675	0.406008	1.257551	0.159675	0.282444	1.257551	0.131497	0.229484	1.054700	0.122104	0.141210	0.801162	0.112711	1.765218	5.850812	0.835823	0.000000	0.000000	28.344951	2.782402	-0.287501	41.822604	-9.273358	17.984083	53.709669	88.228630	-24.310618	9.338654	53.467706	10.947226	131.074255	0.269355	1.313085	-29.514083	-20.337899
2.542373	4.512968	-34.987441	101.413379	0.176424	0.857945	0.771367	43.418464	-0.963057	-14.995695	22.039442	0.384661	39.102816	9.268522	0.000000	45.805519	0.265943	5.662159	22.618592	0.394769	35.642331	-2.873651	0.000000	0.270494	0.507089	0.190080	0.502334	0.674428	0.201960	0.444394	1.232936	0.201960	0.309147	1.232936	0.166320	0.251180	1.034056	0.154440	0.154560	0.785481	0.142560	1.932109	5.736293	1.057167	0.000000	0.000000	28.353738	3.374071	0.835831	41.834203	-8.601547	19.025469	52.930248	88.140126	-23.110551	11.105396	51.790385	10.983457	130.209970	0.311566	0.932229	-26.689523	-21.216691
2.559322	4.489926	-35.148852	101.059367	0.177586	0.859862	0.771423	43.200123	-0.793809	-15.555823	21.402510	0.373544	38.080945	9.768864	0.000000	45.620339	-0.037551	5.168700	22.039788	0.384667	34.918675	-2.724714	0.000000	0.296819	0.495340	0.224402	0.551223	0.658802	0.238427	0.487644	1.204369	0.238427	0.339235	1.204369	0.196352	0.275626	1.010096	0.182327	0.169603	0.767281	0.168302	2.120150	5.603380	1.248057	0.000000	0.000000	28.363078	3.682295	1.475986	42.432974	-7.908210	20.606408	51.576505	88.026013	-22.184311	12.529330	50.123786	10.857348	129.592365	0.522561	0.763702	-24.374126	-22.095184
2.576271	4.551807	-35.466247	100.815378	0.178764	0.861145	0.772101	43.270802	-0.645372	-16.089294	20.935767	0.365398	37.152688	10.183107	0.000000	45.702973	-0.313895	4.724374	21.583909	0.376710	34.279269	-2.581421	0.000000	0.337441	0.487250	0.244930	0.626663	0.648042	0.260238	0.554383	1.184699	0.260238	0.385662	1.184699	0.214314	0.313348	0.993599	0.199006	0.192814	0.754750	0.183698	2.410311	5.511865	1.362229	0.000000	0.000000	28.374041	3.954105	2.068980	43.628539	-7.129896	22.712966	49.561742	87.993855	-21.581887	13.613618	48.426471	10.581724	129.196859	0.921129	0.788742	-22.728583	-22.869226
